<svg id="Layer_1" data-name="Layer 1" xmlns="http://www.w3.org/2000/svg" viewBox="0 0 500 494.54"><defs><style>.cls-1{fill:#1877f1;}.cls-2{fill:#a3c8f9;}.cls-3{fill:#8ebcf8;}.cls-4{fill:#056af0;}.cls-5{fill:#1374f1;}.cls-6{fill:#046af0;}.cls-7{fill:#036bf0;}.cls-8{fill:#0067f0;}.cls-9{fill:#1471f1;}.cls-10{fill:#1b75f1;}.cls-11{fill:#005fef;}</style></defs><title>facebook</title><path class="cls-1" d="M500.1,233.11v1c-1.82.47-1.42,1.86-1.36,3.17.16,3.44.17,6.9.4,10.34.41,6.17-1,12.35.17,18.52-.15,1.63-1.15,3-1.27,4.71-2.87,40.85-15.71,78.48-37.72,112.86q-44.76,69.93-122.53,99.55c-15.09,5.74-30.51,10.37-46.64,12.2q0-82.66-.13-165.35c0-4.48,1.24-6.16,5.93-6.08,14.82.25,29.64.11,44.46.06,2.06,0,4.46.7,5.73-1.88v-.1c2.83-1.21,2.14-4,2.35-6.08.59-6,3.7-11.73,1.64-17.93a156.75,156.75,0,0,1,3.17-21c.49-.43,1.32-.8,1.4-1.3,1.32-8,2.56-15.95,3.78-23.94.16-1-.64-1.42-1.45-1.72h0c-1.09-2.76-3.55-2-5.58-2-18.47,0-36.93-.14-55.39.06-4.48,0-6.17-1.25-6.09-5.93.26-13.64.11-27.28.08-40.92,0-2.12.43-4.36-1.05-6.25,2-18.37,16.95-30.46,37-30,11,1.89,22.12,1.37,33.19.28.27,0,.5-.4.75-.62a.44.44,0,0,1,.18-.59l.09,0c1.92-.86,1.8-2.59,1.8-4.25V107.65c0-1.84.11-3.75-2.22-4.43l-13.36-1.65c-20.68-2.51-41.42-4.72-62.17-1.37-26.69,4.29-47.94,17-61.53,41.13-6.64,11.8-9.55,24.71-11.88,37.84-3.1,2.75-2.07,5.86-.79,9v60h-57c-2.16,0-4.86-.93-6,2.18V322c1.08,2.74,3.51,2.08,5.57,2.08q28.71.06,57.41,0c.08,1.16.22,2.32.22,3.47V490.64c0,1.16-.16,2.32-.24,3.47l-.08,1c-2.71,1.59-5.39.15-7.94-.36-35.86-7.09-68.8-21-98.39-42.58A248.44,248.44,0,0,1,18.94,342.42C8.72,317,3.31,290.61,1.47,263.42q0-12.77-.1-25.54c1.19-13.77,2.59-27.51,5.68-41C21.63,133.34,55.49,82.62,108.8,45.54,158,11.32,213.1-2.89,272.81,2.35A242.38,242.38,0,0,1,381.91,39a247.1,247.1,0,0,1,89.82,97.57,237.16,237.16,0,0,1,26.37,92.51C498.2,230.78,498.1,232.41,500.1,233.11Z" transform="translate(-0.1 -1.29)"/><path class="cls-2" d="M.1,238.11l1.34-.29q0,12.78.1,25.54L.1,263.11Z" transform="translate(-0.1 -1.29)"/><path class="cls-3" d="M500.1,266.11l-.39.16-.4-.13c-1.21-6.17.24-12.35-.17-18.52-.23-3.44-.24-6.9-.4-10.34-.06-1.31-.46-2.7,1.36-3.17Z" transform="translate(-0.1 -1.29)"/><path class="cls-4" d="M291.15,495.46c-.89.3-1.73.26-1.84-.85a44.69,44.69,0,0,1-.14-4.48q0-81.4-.11-162.79c0-4.14,1-5.19,5.15-5.14,17.64.23,35.28,0,52.93,0-1.27,2.58-3.67,1.88-5.73,1.88-14.82,0-29.64.19-44.46-.06-4.69-.08-5.94,1.6-5.93,6.08Q291.23,412.8,291.15,495.46Z" transform="translate(-0.1 -1.29)"/><path class="cls-5" d="M358.1,250.17c-21.32,0-42.64-.11-64,0-3.67,0-5.2-.53-5.11-4.77.3-14,.1-28,.13-42,0-2.81-.2-5.67.9-8.38,1.48,1.89,1.05,4.13,1.05,6.25,0,13.64.18,27.28-.08,40.92-.08,4.68,1.61,6,6.09,5.93,18.46-.2,36.92-.1,55.39-.06C354.52,248.11,357,247.41,358.1,250.17Z" transform="translate(-0.1 -1.29)"/><path class="cls-6" d="M211.1,248.11c.28,3.58-2.48,1.9-3.78,1.91-18.06.11-36.13.07-54.2.08-1.65,0-3.3.15-5,.23,1.11-3.11,3.81-2.17,6-2.18Q182.59,248.09,211.1,248.11Z" transform="translate(-0.1 -1.29)"/><path class="cls-7" d="M361.29,164.11q0-27.48-.09-55c0-2-.22-4-.33-6,2.33.68,2.22,2.59,2.22,4.43v52.23C363.1,161.5,363.21,163.23,361.29,164.11Z" transform="translate(-0.1 -1.29)"/><path class="cls-8" d="M211,323.11l.11,1H153.7c-2.06,0-4.49.66-5.57-2.08l48.78.32c4.15,0,8.29.15,12.43.22Z" transform="translate(-0.1 -1.29)"/><path class="cls-9" d="M354.31,277.11q1.88-13.47,3.73-27c.81.3,1.61.72,1.45,1.72-1.22,8-2.46,16-3.78,23.94C355.63,276.3,354.8,276.67,354.31,277.11Z" transform="translate(-0.1 -1.29)"/><path class="cls-10" d="M347.15,322.11l4-24c2.06,6.2-1,12-1.64,17.93C349.29,318.11,350,320.92,347.15,322.11Z" transform="translate(-0.1 -1.29)"/><path class="cls-11" d="M327.1,165.11l33.94-.34c-.25.22-.48.6-.75.62C349.2,166.43,338.1,167,327.1,165.11Z" transform="translate(-0.1 -1.29)"/><path class="cls-6" d="M211.93,179.11q-.41,4.5-.79,9C209.86,185,208.83,181.88,211.93,179.11Z" transform="translate(-0.1 -1.29)"/><path class="cls-8" d="M211.1,494.11l-.08,1Z" transform="translate(-0.1 -1.29)"/><path class="cls-1" d="M211,323.11l-1.66-.57C210.1,322.27,210.79,321.94,211,323.11Z" transform="translate(-0.1 -1.29)"/></svg>