<svg id="Layer_1" data-name="Layer 1" xmlns="http://www.w3.org/2000/svg" viewBox="0 0 446.82 446.84"><defs><style>.cls-1{fill:#fe574d;}.cls-2{fill:#fefefe;}.cls-3{fill:#fefdfd;}.cls-4{fill:#fe584e;}</style></defs><title>plurk</title><path class="cls-1" d="M91.19,0H355.61c.19.41.57.38.92.4A84.22,84.22,0,0,1,369,2.29c38.48,8.38,69,39.93,76.12,78.73.62,3.38,1.13,6.78,1.7,10.17V356.05c-.51.24-.39.73-.43,1.14-2,19.66-9,37.36-21.64,52.6-20.06,24.25-45.95,36.91-77.51,37q-123.93.21-247.84.06A99.23,99.23,0,0,1,0,347.85Q0,223.28,0,98.71a96.54,96.54,0,0,1,2.32-21A99.67,99.67,0,0,1,81,1.7C84.39,1.08,87.8.56,91.19,0Zm36.4,140.34.8-1,2.41-1.46c4.58-2.74,9.42-4.58,14.86-4.1,8.28.72,13.83,5.59,18,12.3,5.62,9.09,7.71,19.23,8.21,29.72a104.88,104.88,0,0,1-9.65,49.77c-4.76,10.28-11,19.5-20.48,26.08-11.45,7.93-23.9,5.92-32.21-5.24a45.38,45.38,0,0,1-7.36-16.15c-.83-3.28-1.4-6.63-2.08-9.95a111.42,111.42,0,0,0,2.28,25.78,131.65,131.65,0,0,0,10.37,31.34c1.2,2.53.85,3.94-1.3,5.74-1.11.93-2.3,1.78-3.38,2.75A12.05,12.05,0,0,0,104.77,299c.41,1.05.81,1.44,1.81.58a21.79,21.79,0,0,1,2.78-2.1,3.37,3.37,0,0,1,4,5.37,15.51,15.51,0,0,1-2.25,1.71c-1.29.81-1.59,1.49-.45,2.85,4.8,5.74,9.42,11.63,14.21,17.39a11.72,11.72,0,0,0,10.44,4.29c3.68-.26,6.24-2.51,8.92-4.64s3.77-2.05,6.36-.05A133.32,133.32,0,0,0,176,340,132.21,132.21,0,0,0,307.1,329c3.38-2.32,4.41-2.21,7.38.58.43.4.82.84,1.25,1.22a12,12,0,0,0,13.63,1.41c1.16-.65,1.6-1.15.33-2.11a11.57,11.57,0,0,1-1.88-1.82,3.36,3.36,0,0,1,4.56-4.86,11.78,11.78,0,0,1,2.1,1.89c.88,1,1.45.91,2.37-.09,5.05-5.43,10.21-10.75,15.28-16.16a11.78,11.78,0,0,0,3.19-9.6c-.39-4.11-3-6.79-5.8-9.39s-3-3.73-1.2-7.18c14.11-26.5,18.66-54.59,14-84.2a3.06,3.06,0,0,1,1.05-3c4.28-4.05,8.39-8.27,11.46-13.36a22.19,22.19,0,0,0,3.31-9.15c.36-3.43-1.4-4.91-4.76-4-1.88.52-3.71,1.24-5.57,1.86a26.17,26.17,0,0,1-10.93,1.43,2.66,2.66,0,0,1-2.53-1.9,126.67,126.67,0,0,0-21.39-35.24c-24.81-28.8-56.17-44.77-94.17-47A131.56,131.56,0,0,0,128,138.91c-.51.38-.82.82-.4,1.45-.14-.06-.15-.5-.41-.13ZM94.45,191.4c1.46,1.88,2.6,3.82,4.11,5.49,1.81,2,4.83,3.13,5.84,5.37s.44,5.42.58,8.18a16.88,16.88,0,0,0,.17,1.73c1,7.5,2.87,14.69,7.49,20.88,5.55,7.41,13.79,9.37,22,5.18,6.37-3.23,10.89-8.43,14.52-14.4,9.08-14.87,12.54-31.14,11.25-48.41-.62-8.2-2.69-16.06-7.82-22.77-3.13-4.09-7.17-6.82-12.45-7.15-6.49-.39-11.6,2.71-16.15,6.92-6,5.58-10,12.54-13.2,20-.23.55-.24,1.53-1.09,1.37a5.74,5.74,0,0,1-3.37-1.86c-.57-.73.65-1.41,1.06-2.11,3.49-5.84,3.66-11.77,0-17.5s-9.06-8.14-15.7-7.24a15.84,15.84,0,0,0-13,21c.54,1.63.11,2-1.31,2.12a8.1,8.1,0,0,0-.86.13,16.11,16.11,0,1,0,17.88,23Z" transform="translate(0.01 0)"/><path class="cls-2" d="M128,138.91A131.56,131.56,0,0,1,238.74,88.3c38,2.21,69.36,18.18,94.17,47a126.67,126.67,0,0,1,21.39,35.24,2.66,2.66,0,0,0,2.53,1.9A26.17,26.17,0,0,0,367.76,171c1.86-.62,3.69-1.34,5.57-1.86,3.36-.93,5.12.55,4.76,4a22.19,22.19,0,0,1-3.31,9.15c-3.07,5.09-7.18,9.31-11.46,13.36a3.06,3.06,0,0,0-1.05,3c4.7,29.61.15,57.7-14,84.2-1.84,3.45-1.72,4.49,1.2,7.18s5.41,5.28,5.8,9.39a11.78,11.78,0,0,1-3.19,9.6c-5.07,5.41-10.23,10.73-15.28,16.16-.92,1-1.49,1.08-2.37.09a11.78,11.78,0,0,0-2.1-1.89,3.36,3.36,0,0,0-4.56,4.86,11.57,11.57,0,0,0,1.88,1.82c1.27,1,.83,1.46-.33,2.11a12,12,0,0,1-13.63-1.41c-.43-.38-.82-.82-1.25-1.22-3-2.79-4-2.9-7.38-.58A132.21,132.21,0,0,1,176,340a133.32,133.32,0,0,1-25.4-15.57c-2.59-2-3.77-2-6.36.05s-5.24,4.38-8.92,4.64a11.72,11.72,0,0,1-10.44-4.29c-4.79-5.76-9.41-11.65-14.21-17.39-1.14-1.36-.84-2,.45-2.85a15.51,15.51,0,0,0,2.25-1.71,3.37,3.37,0,0,0-4-5.37,21.79,21.79,0,0,0-2.78,2.1c-1,.86-1.4.47-1.81-.58a12.05,12.05,0,0,1,3.28-13.14c1.08-1,2.27-1.82,3.38-2.75,2.15-1.8,2.5-3.21,1.3-5.74a131.65,131.65,0,0,1-10.37-31.34,111.42,111.42,0,0,1-2.28-25.78c.68,3.32,1.25,6.67,2.08,9.95a45.38,45.38,0,0,0,7.36,16.15c8.31,11.16,20.76,13.17,32.21,5.24,9.51-6.58,15.72-15.8,20.48-26.08a104.88,104.88,0,0,0,9.65-49.77c-.5-10.49-2.59-20.63-8.21-29.72-4.16-6.71-9.71-11.58-18-12.3-5.44-.48-10.28,1.36-14.86,4.1l-2.41,1.46Z" transform="translate(0.01 0)"/><path class="cls-3" d="M94.45,191.4a16.12,16.12,0,1,1-17.88-23,8.1,8.1,0,0,1,.86-.13c1.42-.1,1.85-.49,1.31-2.12a15.84,15.84,0,0,1,13-21c6.64-.9,12.09,1.57,15.7,7.24s3.48,11.66,0,17.5c-.41.7-1.63,1.38-1.06,2.11a5.74,5.74,0,0,0,3.37,1.86c.85.16.86-.82,1.09-1.37C114,165,118,158,124,152.42c4.55-4.21,9.66-7.31,16.15-6.92,5.28.33,9.32,3.06,12.45,7.15,5.13,6.71,7.2,14.57,7.82,22.77,1.29,17.27-2.17,33.54-11.25,48.41-3.63,6-8.15,11.17-14.52,14.4-8.24,4.19-16.48,2.23-22-5.18-4.62-6.19-6.51-13.38-7.49-20.88a16.88,16.88,0,0,1-.17-1.73c-.14-2.76.47-5.84-.58-8.18s-4-3.37-5.84-5.37C97.05,195.22,95.91,193.28,94.45,191.4Zm20.4-16.81c2.34-.48,4-.86,5.73-1.17,4.79-.9,8.07.76,10.13,5.12A28.14,28.14,0,0,1,133.39,191c-.1,8.15-5.32,13.65-13.5,14.61-3.66.42-7.14-.32-10.82-1.34.71,5.28,1.9,10.1,5.12,14.16,4,5.11,9.75,6,15.28,2.56a22.66,22.66,0,0,0,6.33-5.93c7.37-10.13,10.1-21.58,9.31-33.93-.34-5.34-1.65-10.48-4.9-14.91s-8.1-6.13-12.84-4.26C121.6,164.24,118.07,168.86,114.85,174.59Z" transform="translate(0.01 0)"/><path class="cls-2" d="M128.39,139.3l-.8,1v0c-.42-.63-.11-1.07.4-1.45Z" transform="translate(0.01 0)"/><path class="cls-2" d="M127.59,140.34l-.41-.11c.26-.37.27.07.41.13Z" transform="translate(0.01 0)"/><path class="cls-4" d="M114.85,174.59c3.22-5.73,6.75-10.35,12.52-12.63,4.74-1.87,9.59-.17,12.84,4.26s4.56,9.57,4.9,14.91c.79,12.35-1.94,23.8-9.31,33.93a22.66,22.66,0,0,1-6.33,5.93c-5.53,3.47-11.23,2.55-15.28-2.56-3.22-4.06-4.41-8.88-5.12-14.16,3.68,1,7.16,1.76,10.82,1.34,8.18-1,13.4-6.46,13.5-14.61a28.14,28.14,0,0,0-2.68-12.46c-2.06-4.36-5.34-6-10.13-5.12C118.88,173.73,117.19,174.11,114.85,174.59Z" transform="translate(0.01 0)"/></svg>