<svg id="Layer_1" data-name="Layer 1" xmlns="http://www.w3.org/2000/svg" viewBox="0 0 455.09 146.65"><defs><style>.cls-1{fill:#fefefe;}.cls-1,.cls-2,.cls-3,.cls-4,.cls-5,.cls-6,.cls-7{fill-rule:evenodd;}.cls-2{fill:#49a942;}.cls-3{fill:#f37a20;}.cls-4{fill:#ed2b74;}.cls-5{fill:#009cdb;}.cls-7{fill:#eee;}</style></defs><title>zing</title><g id="Page-1"><g id="logo"><g id="Group"><g id="Group-4"><g id="Group-26-Copy"><path id="Fill-4" class="cls-1" d="M95.46,96.91a18.62,18.62,0,0,0,4.06,9.78,17.18,17.18,0,0,0,25.78,0,19,19,0,0,0,4.24-12.26V47.78a19,19,0,0,0-3.2-10.72,2.84,2.84,0,0,1,.09-3.27A16.61,16.61,0,0,0,130,23.44,17.09,17.09,0,0,0,112.89,6.32a16.78,16.78,0,0,0-12.12,5h0a16.89,16.89,0,0,0-5,12.11,16.68,16.68,0,0,0,3.12,9.83,2.75,2.75,0,0,1,0,3.22A19.31,19.31,0,0,0,95.3,47.78V92.1a25.23,25.23,0,0,1,.23,3.29c0,.51,0,1-.07,1.52" transform="translate(-0.76 -0.75)"/><path id="Fill-6" class="cls-1" d="M201.78,37.74c-6-5.81-13.84-8.76-23.36-8.76a33.5,33.5,0,0,0-13.94,2.75,2.82,2.82,0,0,1-2.47-.08,17.74,17.74,0,0,0-8.38-2,16.34,16.34,0,0,0-12.91,5.85,18.86,18.86,0,0,0-4.23,12.24V94.43a18.94,18.94,0,0,0,4.24,12.26,17.19,17.19,0,0,0,25.8,0,19,19,0,0,0,4.19-12.24V63.81l.1-1.15a2.47,2.47,0,0,1,2.75-2.38l.4,0a2.57,2.57,0,0,1,2.6,2.46l.07,1V94.43a19,19,0,0,0,4.22,12.24,17.18,17.18,0,0,0,25.79,0,19,19,0,0,0,4.23-12.26V78.3a68.44,68.44,0,0,1-.38-7,59.62,59.62,0,0,1,.38-6.46v-4c0-9.52-3.07-17.31-9.1-23.18" transform="translate(-0.76 -0.75)"/><path id="Fill-8" class="cls-1" d="M230.14,105.8a2.82,2.82,0,0,1,1,2.13,2.18,2.18,0,0,1-.06.52,2.64,2.64,0,0,1-1.84,2.12,16.44,16.44,0,0,0-10.84,15.3c0,8.65,6.91,15.95,15.06,15.95h19.63c12.51,0,22.61-3.34,30-9.94,8.95-8,12.14-22.57,12.14-33.51V47.78A18.93,18.93,0,0,0,291,35.53a16.31,16.31,0,0,0-12.89-5.84,17.68,17.68,0,0,0-8.77,2.17,2.74,2.74,0,0,1-2.62.06A29.64,29.64,0,0,0,253.36,29a34.26,34.26,0,0,0-28,13.82v0a44.61,44.61,0,0,0-8.88,22.39V78.06a44.48,44.48,0,0,0,7.58,21,33.55,33.55,0,0,0,6.11,6.71" transform="translate(-0.76 -0.75)"/><path id="Fill-10" class="cls-1" d="M72.82,79H59.39a2.76,2.76,0,0,1-2.47-1.52,2.8,2.8,0,0,1,.21-2.91S83.36,38.24,83.34,38.25a21.47,21.47,0,0,0,4.19-12.57,16.11,16.11,0,0,0-6.19-13.12,20,20,0,0,0-12.41-4H24.43a16.78,16.78,0,0,0-11.79,4.69,16.14,16.14,0,0,0-5.08,12A15.51,15.51,0,0,0,13,37.32a17.41,17.41,0,0,0,11.48,4.06H34.57a2.81,2.81,0,0,1,2.28,4.43S10.27,82.9,10.28,82.87A21.44,21.44,0,0,0,8.2,86.53l-.08.14a20.5,20.5,0,0,0-1.76,8,16.15,16.15,0,0,0,6.23,13.09,20,20,0,0,0,12.35,4H72.82a17.33,17.33,0,0,0,11.61-4.38,15.63,15.63,0,0,0,5.43-10.3,26.51,26.51,0,0,1-.14-2.7V92.37C88.48,84.15,82.14,79,72.82,79" transform="translate(-0.76 -0.75)"/><path id="Fill-12" class="cls-2" d="M104.13,23.44a8.75,8.75,0,1,1,17.49,0,8.75,8.75,0,1,1-17.49,0m-.46,71V47.78A10.35,10.35,0,0,1,106,40.86a8.79,8.79,0,0,1,12.87,0,10.46,10.46,0,0,1,2.31,6.92V94.43a10.56,10.56,0,0,1-2.31,6.93,8.82,8.82,0,0,1-12.87,0,10.45,10.45,0,0,1-2.31-6.93" transform="translate(-0.76 -0.75)"/><path id="Fill-14" class="cls-3" d="M144.87,94.43V47.78a10.42,10.42,0,0,1,2.31-6.92,7.88,7.88,0,0,1,6.45-2.8c4.53,0,7.21,2.12,8,6.31,3.47-4.66,9.06-7,16.76-7q11,0,17.52,6.36c4.37,4.27,6.58,10,6.58,17.21V94.43a10.58,10.58,0,0,1-2.32,6.93,8.83,8.83,0,0,1-12.88,0A10.54,10.54,0,0,1,185,94.43V63.81a12.4,12.4,0,0,0-3-8.68c-2-2.13-4.82-3.23-8.47-3.23a10.46,10.46,0,0,0-8.23,3.37,12.32,12.32,0,0,0-3,8.54V94.43a10.39,10.39,0,0,1-2.32,6.93,8.79,8.79,0,0,1-12.85,0,10.49,10.49,0,0,1-2.31-6.93" transform="translate(-0.76 -0.75)"/><path id="Fill-16" class="cls-4" d="M269.4,71.58a22,22,0,0,0-3.28-12.22,11.9,11.9,0,0,0-10.58-5.92,11.62,11.62,0,0,0-10.21,5.7,20.63,20.63,0,0,0-3.39,11.73A22.09,22.09,0,0,0,245.09,83a11.68,11.68,0,0,0,10.45,5.8,12.16,12.16,0,0,0,10.58-5.44A20.08,20.08,0,0,0,269.4,71.58Zm-35.95,61.87c-3.64,0-6.68-3.64-6.68-7.58s3.58-7.58,6.52-7.58h19.79c4.47,0,9.54-1.24,12.25-3.67s4.07-9.43,4.07-13.84V96.65q-5.94,8.19-18,8.21-13.24,0-20.54-10.57-6.45-9.09-6.45-23,0-13.59,7.55-23.41a25.68,25.68,0,0,1,21.38-10.58c7.36,0,12.73,2.67,16,8q1.58-7.28,8.75-7.27a7.89,7.89,0,0,1,6.43,2.8,10.49,10.49,0,0,1,2.3,6.92V98.37c0,10.19-3.12,21.66-9.33,27.26-5.94,5.25-14.1,7.82-24.47,7.82Z" transform="translate(-0.76 -0.75)"/><path id="Fill-18" class="cls-5" d="M37.58,87.35H72.82c5.84,0,8.76,2.71,8.76,8a7.39,7.39,0,0,1-2.66,5.76,9.11,9.11,0,0,1-6.1,2.3H24.94a11.53,11.53,0,0,1-7.25-2.3,7.71,7.71,0,0,1-3-6.45A11.86,11.86,0,0,1,15.81,90a16.8,16.8,0,0,1,1.33-2.31L56.3,33H24.43a8.88,8.88,0,0,1-6.06-2.09,7,7,0,0,1-2.43-5.68,7.73,7.73,0,0,1,2.5-5.91,8.3,8.3,0,0,1,6-2.41h44.5a11.6,11.6,0,0,1,7.3,2.26,7.71,7.71,0,0,1,2.91,6.5,13.34,13.34,0,0,1-2.64,7.76Z" transform="translate(-0.76 -0.75)"/><path id="Fill-20" class="cls-6" d="M93.35,34.87a24.69,24.69,0,0,0-3.63,12.91V80.11c-4-4.21-9.9-6.69-16.9-6.69h-8c4.9-6.84,23-31.91,23-31.91a29.16,29.16,0,0,0,4.28-9A22.34,22.34,0,0,0,93.35,34.87ZM89.86,97.13a15.63,15.63,0,0,1-5.43,10.3,17.33,17.33,0,0,1-11.61,4.38H24.94a20,20,0,0,1-12.35-4A16.15,16.15,0,0,1,6.36,94.7a20.46,20.46,0,0,1,1.76-8l.08-.14a21.44,21.44,0,0,1,2.08-3.66S36.85,45.81,36.85,45.81a2.81,2.81,0,0,0-2.28-4.43H24.43A17.41,17.41,0,0,1,13,37.32,15.51,15.51,0,0,1,7.56,25.24a16.14,16.14,0,0,1,5.08-12A16.8,16.8,0,0,1,24.43,8.57h44.5a20,20,0,0,1,12.41,4,16.11,16.11,0,0,1,6.19,13.12,21.47,21.47,0,0,1-4.19,12.57S57.13,74.56,57.13,74.56a2.8,2.8,0,0,0-.21,2.91A2.76,2.76,0,0,0,59.39,79H72.82c9.32,0,15.66,5.16,16.9,13.38a21.22,21.22,0,0,1,.24,3A16.6,16.6,0,0,1,89.86,97.13Zm22.56,15.38a16.35,16.35,0,0,1-12.9-5.82,18.62,18.62,0,0,1-4.06-9.78c0-.49.07-1,.07-1.52a25.23,25.23,0,0,0-.23-3.29V47.78a19.31,19.31,0,0,1,3.54-11.29,2.75,2.75,0,0,0,0-3.22,16.68,16.68,0,0,1-3.12-9.83,16.89,16.89,0,0,1,5-12.11h0A17.12,17.12,0,0,1,130,23.44a16.61,16.61,0,0,1-3.57,10.35,2.82,2.82,0,0,0-.09,3.27,19,19,0,0,1,3.2,10.72V94.43a19,19,0,0,1-4.24,12.26A16.36,16.36,0,0,1,112.42,112.51Zm98.46-18.08a19,19,0,0,1-4.23,12.26,17.18,17.18,0,0,1-25.79,0,19,19,0,0,1-4.22-12.24V63.81l-.07-1a2.57,2.57,0,0,0-2.6-2.46l-.4,0a2.47,2.47,0,0,0-2.75,2.38l-.1,1.15V94.43a19,19,0,0,1-4.19,12.24,17.2,17.2,0,0,1-25.81,0,19,19,0,0,1-4.23-12.26V47.78a18.86,18.86,0,0,1,4.23-12.24,16.34,16.34,0,0,1,12.91-5.85,17.74,17.74,0,0,1,8.38,2,2.82,2.82,0,0,0,2.47.08A33.5,33.5,0,0,1,178.42,29c9.52,0,17.39,2.95,23.36,8.76s9.1,13.66,9.1,23.18v4a59.62,59.62,0,0,0-.38,6.46,68.44,68.44,0,0,0,.38,7Zm84.37,3.94c0,10.94-3.19,25.47-12.14,33.51-7.42,6.6-17.52,9.94-30,9.94H233.45c-8.15,0-15.06-7.3-15.06-15.95a16.44,16.44,0,0,1,10.84-15.3,2.64,2.64,0,0,0,1.84-2.12,2.18,2.18,0,0,0,.06-.52,2.82,2.82,0,0,0-1-2.13A33.55,33.55,0,0,1,224,99.09a44.48,44.48,0,0,1-7.58-21,61,61,0,0,1-.38-6.72,50.78,50.78,0,0,1,.38-6.12,44.61,44.61,0,0,1,8.88-22.39v0a34.29,34.29,0,0,1,28-13.82,29.64,29.64,0,0,1,13.4,2.94,2.74,2.74,0,0,0,2.62-.06,17.68,17.68,0,0,1,8.77-2.17A16.31,16.31,0,0,1,291,35.53a18.93,18.93,0,0,1,4.21,12.25Zm.1-66.37a21.81,21.81,0,0,0-17.2-7.9A23,23,0,0,0,268,26.4a35.11,35.11,0,0,0-14.6-3,39.54,39.54,0,0,0-32.42,16l-.05,0a48.38,48.38,0,0,0-5.92,10,34.67,34.67,0,0,0-9.29-15.72c-7.07-6.84-16.25-10.33-27.26-10.33a39.74,39.74,0,0,0-15,2.77,23.6,23.6,0,0,0-9.78-2.07A21.82,21.82,0,0,0,136.41,32a22.61,22.61,0,0,0-3.47,5.69c-.33-.7-.65-1.4-1.05-2.09A22.38,22.38,0,0,0,129,7.39a22.75,22.75,0,0,0-32.13,0v0a21.54,21.54,0,0,0-5.55,9.09,21.15,21.15,0,0,0-6.5-8.37A25.65,25.65,0,0,0,68.93,3H24.43A22.24,22.24,0,0,0,8.8,9.22,21.61,21.61,0,0,0,2,25.24,21,21,0,0,0,9.34,41.58,22.94,22.94,0,0,0,24.43,47h4.7L5.72,79.63a30.6,30.6,0,0,0-2.65,4.64L3,84.46A26,26,0,0,0,.76,94.7a21.61,21.61,0,0,0,8.42,17.5,25.49,25.49,0,0,0,15.76,5.2H72.82a22.81,22.81,0,0,0,15.24-5.76,21.15,21.15,0,0,0,4.53-5.36,23.13,23.13,0,0,0,2.64,4,22.73,22.73,0,0,0,34.38,0,22.83,22.83,0,0,0,3.41-5.56,23.8,23.8,0,0,0,3.39,5.56,22.74,22.74,0,0,0,34.41,0,23.23,23.23,0,0,0,2.88-4.56,22.25,22.25,0,0,0,2.86,4.56,22.73,22.73,0,0,0,34.4,0,24.39,24.39,0,0,0,5.37-13.18,44,44,0,0,0,3.12,5.23,41,41,0,0,0,4.08,4.89,22.26,22.26,0,0,0-10.7,18.69c0,11.67,9.45,21.53,20.62,21.53h19.63c13.93,0,25.27-3.82,33.73-11.35,10.33-9.28,14-25.55,14-37.68V47.78A24.39,24.39,0,0,0,295.35,32Z" transform="translate(-0.76 -0.75)"/></g><g id="Group-2-Copy"><path id="vn" class="cls-7" d="M348.57,52.39l12.95,36.32L375.46,50.8a22.61,22.61,0,0,1,3.23-6.47,5.87,5.87,0,0,1,4.8-1.9,7.22,7.22,0,0,1,5.19,2,6.4,6.4,0,0,1,2.14,4.74,9.66,9.66,0,0,1-.38,2.46,24.74,24.74,0,0,1-.88,2.64c-.34.82-.72,1.76-1.15,2.81L373.06,95.22c-.43,1.09-1,2.48-1.67,4.16a21.67,21.67,0,0,1-2.28,4.31,9.08,9.08,0,0,1-3.11,2.78,9.36,9.36,0,0,1-4.48,1,8.64,8.64,0,0,1-5.42-1.55,10.49,10.49,0,0,1-3-3.4c-.64-1.23-1.73-3.66-3.25-7.29L334.63,57.54c-.36-.93-.72-1.87-1.09-2.81a26,26,0,0,1-.94-2.87,10.49,10.49,0,0,1-.38-2.52,6.08,6.08,0,0,1,1-3.25A7.67,7.67,0,0,1,336,43.45a7.45,7.45,0,0,1,3.81-1c2.66,0,4.48.76,5.48,2.28A35.93,35.93,0,0,1,348.57,52.39Zm65.26-1.12v1.94A28,28,0,0,1,423.06,45a24.56,24.56,0,0,1,11.51-2.6,22.93,22.93,0,0,1,11.31,2.75A17.5,17.5,0,0,1,453.32,53a18.69,18.69,0,0,1,2.06,6.33,66.28,66.28,0,0,1,.46,8.67V97.74q0,4.8-2.19,7.26a7.92,7.92,0,0,1-11.52,0c-1.48-1.68-2.22-4.09-2.22-7.21V71.08q0-7.92-2.2-12.1T429,54.79a13,13,0,0,0-7.79,2.55,14.58,14.58,0,0,0-5.16,7q-1.17,3.57-1.17,13.36v20q0,4.86-2.26,7.29a7.58,7.58,0,0,1-5.83,2.43,7.23,7.23,0,0,1-5.68-2.51c-1.49-1.68-2.23-4.09-2.23-7.21V51.51c0-3,.67-5.32,2-6.83a6.92,6.92,0,0,1,5.45-2.25,7.41,7.41,0,0,1,3.81,1,7.23,7.23,0,0,1,2.73,3A10.58,10.58,0,0,1,413.83,51.27Z" transform="translate(-0.76 -0.75)"/><path class="cls-7" d="M319.87,108.46a9.14,9.14,0,0,1-6.27-2.34A8.31,8.31,0,0,1,311,99.56a8.5,8.5,0,0,1,2.52-6.15,8.34,8.34,0,0,1,6.21-2.58,8.69,8.69,0,0,1,6.3,2.55,9,9,0,0,1,0,12.71A8.81,8.81,0,0,1,319.87,108.46Z" transform="translate(-0.76 -0.75)"/></g></g></g></g></g></svg>