<svg id="Layer_1" data-name="Layer 1" xmlns="http://www.w3.org/2000/svg" viewBox="0 0 993.66 992.96"><defs><style>.cls-1{fill:#ebeded;}.cls-2{fill:#e4e8eb;}.cls-3{fill:#eceeef;}.cls-4{fill:#d9dfe6;}.cls-5{fill:#fdfefe;}.cls-6{fill:#0369fe;}.cls-7{fill:#035ce0;}.cls-8{fill:#d5dde6;}.cls-9{fill:#066afe;}.cls-10{fill:#0569fe;}.cls-11{fill:#0168fe;}.cls-12{fill:#004cde;}.cls-13{fill:#fbfcfe;}.cls-14{fill:#fafcfe;}</style></defs><title>zalo</title><path class="cls-1" d="M925.28,176.38c37.76,52.13,53.9,112.23,62,174.62,7.47,57.52,6.32,115.57,6.19,173.51-.13,54.62-2.83,109-14.38,162.46-13.4,62.08-39.56,118-80.66,167.06-61,72.72-140,111.83-232.07,127.61a633,633,0,0,1-103.75,8.79c-27.71.16-55.49,3.67-83.24,2.15-57.11-3.11-114.69-1.18-171-14.07-79.9-18.3-150.39-53.35-205.06-116.22l11.64-.38h0c-.29,4.26,1.84,6.06,5.93,5.87l2.48,2.48c-.19,4.1,1.62,6.23,5.87,5.94l-.11-.11c.36,8.73,5.7,11.76,13.58,11.9l6.17,4.95c-.1,7.87,4.75,9.49,11.3,8.94l-.06,0C162.83,912,170.5,915.3,180,916l-.07,0c1.39,8.43,7.86,8.41,14.24,8.56l-.07-.06c.17,6.94,6.43,7.42,10.68,9.8,59.22,33.27,124.28,47.7,190.78,49,83.2,1.62,166.69,6,249.85-4.5C710.47,970.56,770.73,950,825.09,913c4.1-2.79,9.89-4.39,9.3-11.18l-.07.06c6.57.58,11.44-1,11.3-8.92l6.21-4.95c11.09-.83,16.77-7.56,19.31-17.72l2.5-2.51c7.37-.49,11.71-3.86,11.22-11.82l.32.83-.38-.81c6.35,1.11,6.41-3.25,6.56-7.53l4.94-6.19c5.94.39,6.39-3.62,6.39-8l2.43-3.2c7-.5,7.73-6,8.81-11.15-.21-4.21,2.91-6.77,4.86-9.93a423.5,423.5,0,0,0,40.54-85c19.53-56.72,23-115.89,24.94-174.86,2-61.09,1.7-122.3-4.77-183.36-4.07-38.47-10.41-76.19-23.17-112.69-9.5-27.17-24.55-51.78-36.8-77.68Z" transform="translate(0.05)"/><path class="cls-2" d="M97.72,853.84c-9.37-4.74-13.81-14.11-19.43-22-40.23-56.39-62.51-120-71.06-188.14C-2.41,566.79-.51,489.24,1.88,412.06,4,344.77,14.82,278.25,45,216.71c22-44.84,51-84.49,89.4-116.9q1.65,2,3.28,4a76.2,76.2,0,0,1-5.48,6.39c-72.82,68.69-107.83,154.89-117,253C8.11,438,9.75,513,12.37,587.9c2.87,82.38,21.78,160.15,68,229.75a4.22,4.22,0,0,0,.9,1.73l2.08,3.29c-.08,4.28.08,8.38,6,8.39l2.43,3.17c0,4.38.46,8.4,6.42,8l4.93,6.16C103.06,851.94,101.3,853.8,97.72,853.84Z" transform="translate(0.05)"/><path class="cls-3" d="M137.66,103.84q-1.64-2-3.28-4C151.17,81.6,172,68.6,193.17,56.63,243.31,28.27,297.56,12.76,354.83,5.94c75.72-9,151.62-5.23,227.41-4.73,49.22.33,98.36,7.31,145.43,23,51,16.94,97.63,41.88,137.25,79,21.32,19.95,41.3,41,57.06,65.67,1.46,2.3,2.21,5.05,3.3,7.59h-5.75c-13.45-16.77-25.88-34.51-40.55-50.14-40.05-42.65-89.2-71.62-143.69-92C677.24,12.6,616.13,8.9,555.35,6.87c-71.37-2.39-143-2.4-214,8C300,21,259.05,29.27,222.58,51.62c-8.37.12-14.74,5.16-21.59,8.91C178.46,72.87,158.17,88.52,137.66,103.84Z" transform="translate(0.05)"/><path class="cls-4" d="M97.72,853.84c3.58,0,5.34-1.9,5.44-5.43,4.63,3.89,9.3,7.75,11.81,13.5l-11.64.38Z" transform="translate(0.05)"/><path class="cls-5" d="M222.58,51.62C259.05,29.27,300,21,341.38,14.91c71-10.44,142.6-10.43,214-8,60.78,2,121.89,5.73,179.94,27.41,54.49,20.35,103.64,49.32,143.69,92,14.67,15.63,27.1,33.37,40.55,50.14,12.25,25.9,27.3,50.51,36.8,77.68,12.76,36.5,19.1,74.22,23.17,112.69,6.47,61.06,6.73,122.27,4.77,183.36-1.9,59-5.41,118.14-24.94,174.86a423.5,423.5,0,0,1-40.54,85c-1.95,3.16-5.07,5.72-4.86,9.93-2.95.09-6.19-1-8.42,2.06-55.26,33.83-115.81,53.16-178.92,65.71-29.1,5.79-58.73,7-88,11.32H554.37c-5-.87-10.08-2.16-15.18-2.55-91.78-6.94-178.67-29.84-257.59-78.79-5.45-3.38-10.43-4.76-17.09-2a237.6,237.6,0,0,1-107.4,18.41c-8-5.84-.8-9.52,2.14-13.45,26.92-35.94,41.47-74.28,8.13-119.56-30.87-41.94-46.43-92.16-58.64-142.74-16.63-68.9-20.43-138.73-13.64-209.2C102,277.69,120.69,209.69,154,145.84,172.15,111,196.84,80.94,222.58,51.62Zm125.82,326c-4.08,5.9-6.45,9.83-9.3,13.38q-55.82,69.38-111.76,138.65c-6.87,8.51-12.78,17.13-13.8,28.75-.9,10.1,1.06,14.1,12.44,14,52.4-.61,104.81-.24,157.21-.32,4.21,0,8.67,0,12.58-1.36,15.84-5.34,10.82-19.08,10.88-30.08.05-11.57-9.75-6.3-15-6.37-35.4-.48-70.82-.18-106.23-.35-3.9,0-8.36,1.78-12.31-2.31,1.54-2.31,2.9-4.7,4.59-6.83q58-73.08,116.16-146c6.68-8.34,11.18-17.2,12.9-27.66,1.56-9.55-.52-14.2-12-14.05-49.3.64-98.61.32-147.92.39-28,0-27.35.1-28.05,27.56-.29,11.17,3.47,13.05,13.56,12.9C270.07,377.32,307.82,377.66,348.4,377.66ZM561.66,557c1.64,2.78,2.92,5.86,5,8.26,8,9.27,19.19,8,28.93,6.2,8.81-1.59,4.5-11,4.54-16.72q.54-72.86,0-145.72c0-4.72,4.26-13.17-4.21-14-10.56-1-29.11-4.23-30.7,1.36-4.83,17-11.49,4.07-15.12,2.3-37.13-18.13-81.43-9.39-109.38,22.26-27.09,30.7-29.53,77.63-6.81,111.42C457.08,566.91,509,589.22,561.66,557ZM791.3,573.59c51.35.65,93.61-40,94.31-90.78.7-50.53-40.1-93.47-89.49-94.21-52.26-.77-94.38,38.82-95.15,89.45C700.17,531.07,739.75,572.94,791.3,573.59Zm-118-119.74v-93.5c0-25.5,0-24.75-25.85-25.78-12.19-.48-14.55,3.32-14.45,14.8.58,65.16.28,130.32.28,195.49,0,25.41,2.12,26.85,27.26,27.53,11.18.3,13.16-3.58,13-13.72C673,523.74,673.33,488.79,673.33,453.85Z" transform="translate(0.05)"/><path class="cls-6" d="M222.58,51.62C196.84,80.94,172.15,111,154,145.84c-33.28,63.85-52,131.85-58.87,203.3-6.79,70.47-3,140.3,13.64,209.2,12.21,50.58,27.77,100.8,58.64,142.74,33.34,45.28,18.79,83.62-8.13,119.56-2.94,3.93-10.15,7.61-2.14,13.45,20.25,20.7,41,40.89,60.57,62.25,18.52,20.26,39.08,38.65,55.54,60.77-28.23-6.38-53-21.16-79.13-32.62l.07.06c-3.95-4.18-8.27-7.75-14.24-8.56l.07,0c-5.29-6.63-12.46-10.62-19.91-14.22l.06,0a25.58,25.58,0,0,0-11.3-8.94L142.67,888c-4-4.59-7.74-9.43-13.58-11.9l.11.11a7.58,7.58,0,0,0-5.87-5.94l-2.48-2.48a7.55,7.55,0,0,0-5.93-5.87h0c-2.51-5.75-7.18-9.61-11.81-13.5l-4.93-6.16c-1.4-3.26-3-6.41-6.42-8l-2.43-3.17a12.55,12.55,0,0,0-6-8.39c-.69-1.1-1.39-2.19-2.08-3.28l.16-1.12-1.06-.62c-46.26-69.6-65.17-147.37-68-229.75C9.75,513,8.11,438,15.13,363.2c9.22-98.08,44.23-184.28,117.05-253a76.2,76.2,0,0,0,5.48-6.39c20.51-15.32,40.8-31,63.33-43.31C207.84,56.78,214.21,51.74,222.58,51.62Z" transform="translate(0.05)"/><path class="cls-7" d="M273.22,957.11c-16.46-22.12-37-40.51-55.54-60.77-19.52-21.36-40.32-41.55-60.57-62.25a237.6,237.6,0,0,0,107.4-18.41c6.66-2.79,11.64-1.41,17.09,2,78.92,49,165.81,71.85,257.59,78.79,5.1.39,10.13,1.68,15.19,2.55l-3,2c.69.36,1.38,1,2.07,1q42.09.06,84.18-.09c1.49,0,2-1.5,1-2.94,29.26-4.3,58.89-5.53,88-11.32C789.7,875.11,850.25,855.78,905.51,822c6.13,3.3-1.56,6-.39,9.09l-2.43,3.2c-3.51,1.55-5.07,4.67-6.39,8l-4.94,6.19c-3.36,1.49-5,4.48-6.56,7.53l.38.81-.32-.83c-4.91,2.83-9,6.49-11.22,11.82l-2.5,2.51c-7.86,4.35-13.34,11.31-19.31,17.72l-6.21,4.95a26.18,26.18,0,0,0-11.3,8.92l.07-.05a17.25,17.25,0,0,0-3.85,1.56C769,948.11,699.23,969.69,624.17,976.18c-73.41,6.34-147,4.33-220.44,2.31C359.44,977.27,315.5,971.71,273.22,957.11Z" transform="translate(0.05)"/><path class="cls-4" d="M273.22,957.11c42.28,14.6,86.22,20.16,130.51,21.38,73.48,2,147,4,220.44-2.31,75.06-6.49,144.81-28.07,206.37-72.83a17.25,17.25,0,0,1,3.85-1.56c.59,6.78-5.2,8.38-9.3,11.17-54.36,37-114.62,57.6-179.69,65.83-83.16,10.51-166.65,6.12-249.85,4.5-66.5-1.3-131.56-15.73-190.78-49-4.25-2.38-10.51-2.86-10.68-9.8C220.23,936,245,950.73,273.22,957.11Z" transform="translate(0.05)"/><path class="cls-4" d="M851.83,888c6-6.41,11.45-13.37,19.31-17.72C868.6,880.41,862.92,887.14,851.83,888Z" transform="translate(0.05)"/><path class="cls-4" d="M160.08,901.82c7.45,3.6,14.62,7.59,19.91,14.22C170.5,915.3,162.83,912,160.08,901.82Z" transform="translate(0.05)"/><path class="cls-4" d="M129.09,876.08c5.84,2.47,9.59,7.31,13.58,11.9C134.79,887.84,129.45,884.81,129.09,876.08Z" transform="translate(0.05)"/><path class="cls-4" d="M873.64,867.74c2.27-5.33,6.31-9,11.22-11.82C885.35,863.88,881,867.25,873.64,867.74Z" transform="translate(0.05)"/><path class="cls-8" d="M905.12,831c-1.17-3.09,6.52-5.79.39-9.09,2.23-3,5.47-2,8.42-2.06C912.85,825.08,912.13,830.54,905.12,831Z" transform="translate(0.05)"/><path class="cls-4" d="M179.92,916c6,.81,10.29,4.38,14.24,8.56C187.78,924.4,181.31,924.42,179.92,916Z" transform="translate(0.05)"/><path class="cls-4" d="M148.84,892.93a25.58,25.58,0,0,1,11.3,8.94C153.59,902.42,148.74,900.8,148.84,892.93Z" transform="translate(0.05)"/><path class="cls-4" d="M834.32,901.84a26.18,26.18,0,0,1,11.3-8.92C845.76,900.84,840.89,902.42,834.32,901.84Z" transform="translate(0.05)"/><path class="cls-8" d="M896.3,842.22c1.32-3.31,2.88-6.43,6.39-8C902.69,838.6,902.24,842.61,896.3,842.22Z" transform="translate(0.05)"/><path class="cls-8" d="M884.8,855.94c1.57-3.05,3.2-6,6.56-7.53C891.21,852.69,891.15,857.05,884.8,855.94Z" transform="translate(0.05)"/><path class="cls-4" d="M114.92,861.9a7.55,7.55,0,0,1,5.93,5.87C116.76,868,114.63,866.16,114.92,861.9Z" transform="translate(0.05)"/><path class="cls-4" d="M123.33,870.25a7.58,7.58,0,0,1,5.87,5.94C125,876.48,123.14,874.35,123.33,870.25Z" transform="translate(0.05)"/><path class="cls-4" d="M83.39,822.67a12.55,12.55,0,0,1,6,8.39C83.47,831.05,83.31,827,83.39,822.67Z" transform="translate(0.05)"/><path class="cls-4" d="M91.81,834.23c3.47,1.61,5,4.76,6.42,8C92.27,842.63,91.82,838.61,91.81,834.23Z" transform="translate(0.05)"/><path class="cls-4" d="M80.41,817.65l1.06.62-.16,1.12A4.33,4.33,0,0,1,80.41,817.65Z" transform="translate(0.05)"/><path class="cls-9" d="M348.4,377.66c-40.58,0-78.33-.34-116.06.24-10.09.15-13.85-1.73-13.56-12.9.7-27.46.06-27.52,28.05-27.56,49.31-.07,98.62.25,147.92-.39,11.48-.15,13.56,4.5,12,14.05-1.72,10.46-6.22,19.32-12.9,27.66q-58.38,72.78-116.16,146c-1.69,2.13-3.05,4.52-4.59,6.83,3.95,4.09,8.41,2.29,12.31,2.31,35.41.17,70.83-.13,106.23.35,5.26.07,15.06-5.2,15,6.37-.06,11,5,24.74-10.88,30.08-3.91,1.32-8.37,1.35-12.58,1.36-52.4.08-104.81-.29-157.21.32-11.38.13-13.34-3.87-12.44-14,1-11.62,6.93-20.24,13.8-28.75Q283.26,460.41,339.1,391C342,387.49,344.32,383.56,348.4,377.66Z" transform="translate(0.05)"/><path class="cls-10" d="M561.66,557c-52.64,32.2-104.58,9.89-127.79-24.61-22.72-33.79-20.28-80.72,6.81-111.42,27.95-31.65,72.25-40.39,109.38-22.26,3.63,1.77,10.29,14.68,15.12-2.3,1.59-5.59,20.14-2.36,30.7-1.36,8.47.8,4.17,9.25,4.21,14q.55,72.85,0,145.72c0,5.74,4.27,15.13-4.54,16.72-9.74,1.77-21,3.07-28.93-6.2C564.58,562.88,563.3,559.8,561.66,557Zm1.81-75.91c0-29.44-24.84-54.53-53.84-54.42s-54.27,25.23-54.42,54.22,25.4,54.65,54.2,54.5C538.74,535.26,563.48,510.41,563.47,481.11Z" transform="translate(0.05)"/><path class="cls-10" d="M791.3,573.59c-51.55-.65-91.13-42.52-90.33-95.54.77-50.63,42.89-90.22,95.15-89.45,49.39.74,90.19,43.68,89.49,94.21C884.91,533.56,842.65,574.24,791.3,573.59Zm-53-92.46C738.34,511,764,536.51,793.44,536s53.83-24.75,54.43-54.35-24.91-55.54-54.5-55.49C763.38,426.23,738.24,451.32,738.29,481.13Z" transform="translate(0.05)"/><path class="cls-11" d="M673.33,453.85c0,34.94-.38,69.89.23,104.82.17,10.14-1.81,14-13,13.72-25.14-.68-27.26-2.12-27.26-27.53,0-65.17.3-130.33-.28-195.49-.1-11.48,2.26-15.28,14.45-14.8,25.82,1,25.85.28,25.85,25.78Z" transform="translate(0.05)"/><path class="cls-12" d="M638.6,899c1,1.44.54,2.93-1,2.94q-42.09.2-84.18.09c-.69,0-1.38-.67-2.07-1l3-2Z" transform="translate(0.05)"/><path class="cls-13" d="M563.47,481.11c0,29.3-24.73,54.15-54.06,54.3-28.8.15-54.36-25.55-54.2-54.5s25.35-54.1,54.42-54.22S563.46,451.67,563.47,481.11Z" transform="translate(0.05)"/><path class="cls-14" d="M738.29,481.13c0-29.81,25.09-54.9,55.08-54.95,29.59-.05,55.09,25.92,54.5,55.49S823,535.53,793.44,536,738.34,511,738.29,481.13Z" transform="translate(0.05)"/></svg>