<svg xmlns="http://www.w3.org/2000/svg" viewBox="0 0 322.71 147.9"><defs><style>.cls-1{fill:#f26922;}</style></defs><title>Untitled-1</title><g id="Layer_1" data-name="Layer 1"><path class="cls-1" d="M40.34,68c-4.07-.32-7.08-.4-13.45,1.63v76.49c6,1.91,8.55,1.85,13.45,1.85Z" transform="translate(0 -0.06)"/><path class="cls-1" d="M67.25,53.57A62.8,62.8,0,0,0,58,74.2l-4.16-2.44V148H67.25Z" transform="translate(0 -0.06)"/><path class="cls-1" d="M13.45,77.37a41.3,41.3,0,0,0,0,61Z" transform="translate(0 -0.06)"/><path class="cls-1" d="M80.68,39.49V148H94.13V31.89A54.63,54.63,0,0,0,80.68,39.49Z" transform="translate(0 -0.06)"/><path class="cls-1" d="M139.56,35.48,134.45,33V148h13.46v-124A74,74,0,0,0,139.56,35.48Z" transform="translate(0 -0.06)"/><path class="cls-1" d="M267.29,68.35C264.55,30.19,235,.06,198.49.06a65.16,65.16,0,0,0-37.13,11.8V148H283.59c21.6,0,39.12-18.71,39.12-41.77C322.71,76.16,293.55,55.48,267.29,68.35Z" transform="translate(0 -0.06)"/><path class="cls-1" d="M107.57,28.86V148H121V29C114.18,27.93,112.63,28.32,107.57,28.86Z" transform="translate(0 -0.06)"/></g></svg>