<svg id="Layer_1" data-name="Layer 1" xmlns="http://www.w3.org/2000/svg" viewBox="0 0 311 51.08"><defs><style>.cls-1{fill:#ee282b;}</style></defs><title>genk</title><path d="M281.13,25.18c3.64,7,7,13.36,10.31,19.83,2.16,4.28,1.57,5.4-2.75,5.46-4.8.06-9.6-.13-14.39.08-2.27.1-3.42-1-4.39-3.19-1.38-3.13-3-6.12-4.94-10C252.79,47,240,53.85,224.43,49.49a37.6,37.6,0,0,1,1.32-6C231.06,30,236.53,16.54,241.81,3c.93-2.41,2.12-3.31,4.31-3.23,3.86.15,7.72,0,12.56,0l-13.85,35a25.47,25.47,0,0,0,2.68-1.45q20.89-16,41.78-32A5.32,5.32,0,0,1,292-.08a166.62,166.62,0,0,1,19,.53c-4,5.63-9.55,8.76-14.48,12.78S286.46,21.06,281.13,25.18Z" transform="translate(0 0.24)"/><path class="cls-1" d="M175,13.65c-3.07,7.49-5.8,13.91-8.33,20.43-1,2.48.6,3.12,2.34,3.14,2.9.05,5.81,0,8.71,0,3.5,0,9.38,7,9.09,11.05a2.74,2.74,0,0,1-2,1.81c-11.75.11-23.49.14-35.24-.09-.78,0-2.19-2.24-2.16-3.4a18.33,18.33,0,0,1,1.64-5.82c4.8-12.37,9.7-24.69,14.48-37.08C164.59,1.09,166,0,168.52,0c5.81.16,11.63.18,17.43,0,2.77-.09,4.37,1.16,5.73,3.92,4,8,8.15,15.88,12.72,24.71,1.44-3.18,2.53-5.39,3.46-7.69,2.38-5.87,4.78-11.73,7-17.7.88-2.4,2-3.36,4.28-3.24,3.53.19,7.07,0,10.61.06,4.23,0,4.66.8,2.81,5.49-4.33,11-9.43,21.65-12.88,33-3,9.78-7.69,12.38-16.23,12-7.06-.28-11.49-1.9-14.69-9.76C185.07,31.84,180.11,23.56,175,13.65Z" transform="translate(0 0.24)"/><path class="cls-1" d="M140.87,37.5c-.4,8.91-3.58,12.71-10.24,12.71q-25.56,0-51.12,0c-5.91,0-7.22-2-4.82-8.3Q82,22.69,89.85,3.79c.71-1.7,3-3.54,4.59-3.56C114.38,0,134.32.08,154.27.1a5.08,5.08,0,0,1,1.37.38c-.1,7.78-3.25,11.67-9.33,11.67-12.5,0-25-.12-37.49.14a9.56,9.56,0,0,0-5.88,2.9c-1.7,1.68-.87,3.48,1.37,3.86a19.31,19.31,0,0,0,3.4.14q18,0,36,0c1.47,0,2.93.18,4.39.27-.32,7.89-3,11-8.9,11H102.07c-1.26,0-2.83-.4-3.71.31C97,32,96,33.86,94.88,35.45c1.25.6,2.5,1.71,3.75,1.72,12.75.13,25.5.08,38.25.09C138.22,37.27,139.55,37.42,140.87,37.5Z" transform="translate(0 0.24)"/><path class="cls-1" d="M82.94.61c-1.44,3.68-2.27,7.06-4,9.64-1,1.52-3.4,2.43-5.18,2.46-11.87.21-23.75.31-35.61,0-5.3-.13-8.63,2.12-10.48,7.92-1.18,3.73-2.85,7.24-4.21,10.89-1.43,3.86-.91,5,2.51,5,6.82.1,13.65.27,20.45-.14,1.8-.11,3.54-2.19,5.24-3.47.37-.28.47-1,.73-1.53,1.87-3.76,3.15-9.84,5.77-10.77,4.91-1.75,10.59-.51,16.37-.51a19.92,19.92,0,0,1-.7,3.48q-4.53,11.2-9.18,22.33c-1.29,3.07-3.37,4.35-6.42,4.33-17.55-.12-35.11-.05-52.66-.07-5.41,0-6.74-1.9-4.65-7.84,3-8.46,6.42-16.7,9.72-25,1.86-4.68,3.64-9.44,5.88-13.87C17.34,1.9,19.39.23,20.88.21,40.7,0,60.53.06,80.36.08A17.73,17.73,0,0,1,82.94.61Z" transform="translate(0 0.24)"/></svg>