<svg xmlns="http://www.w3.org/2000/svg" viewBox="0 0 105.66 21.34"><defs><style>.cls-1{fill:#0790c7;}.cls-2{fill:#028ac1;}.cls-3{fill:#1d92c1;}.cls-4{fill:#1e89b4;}.cls-5{fill:#057cb3;}.cls-6{fill:#0d8ec2;}.cls-7{fill:#2c8eb6;}.cls-8{fill:#2e92ba;}.cls-9{fill:#2491bd;}.cls-10{fill:#1f8bb8;}.cls-11{fill:#0d82b2;}.cls-12{fill:#3493ba;}.cls-13{fill:#047bb0;}.cls-14{fill:#2090be;}.cls-15{fill:#3f96b9;}.cls-16{fill:#1183b5;}.cls-17{fill:#1386b5;}.cls-18{fill:#3794bb;}.cls-19{fill:#2087b1;}.cls-20{fill:#1985b1;}.cls-21{fill:#188ab8;}.cls-22{fill:#238dba;}.cls-23{fill:#0a8abf;}.cls-24{fill:#17c5bd;}.cls-25{fill:#22c9c1;}.cls-26{fill:#0db1eb;}.cls-27{fill:#29daa2;}</style></defs><title>logo</title><g id="Layer_3" data-name="Layer 3"><path class="cls-1" d="M102.2,9.11l.3,6.7a.78.78,0,0,1-1.34.15c-1.44-4.42-.39-8.81-.74-13.88,2.59,1.63,1.68,3.2,1.86,4.51A2.18,2.18,0,0,1,102.2,9.11Z" transform="translate(-0.02 0)"/><path class="cls-2" d="M35.5,7.33a21.33,21.33,0,0,1,0,11.24A15.67,15.67,0,0,1,35.5,7.33Z" transform="translate(-0.02 0)"/><path class="cls-3" d="M82.07,16.75c1.55-2,2.16-4.15,1-6.56-.66-1.25.83-1.72,1-2.68,1.52,1.46,2.32,10.13.85,11-.6.34-1.78-.34-2.69-.55-.32-.23-.45-.48-.38-.75S82,16.75,82.07,16.75Z" transform="translate(-0.02 0)"/><path class="cls-4" d="M65.18,15c-.16,1.25.49,2.65-1.67,4.52-.22-5.23-1-9.64.44-14.12a.58.58,0,0,1,.45,0,5.2,5.2,0,0,1,.57.66c-.38,2.57-.84,5.14.34,7.64A1.09,1.09,0,0,1,65.18,15Z" transform="translate(-0.02 0)"/><path class="cls-5" d="M27.24,15.2c-.13,1.06.47,2.25-1.36,4,.3-5.52-.39-10.19,1.38-14.85v8.39A2,2,0,0,1,27.24,15.2Z" transform="translate(-0.02 0)"/><path class="cls-6" d="M43.22,9.14l-1,9.57c-.87-3.88-2.67-7.75-.07-11.52C43,7.6,43.83,8,43.22,9.14Z" transform="translate(-0.02 0)"/><path class="cls-7" d="M84,7.51l-1,2.68c-2.68-2.73-5.8-2.08-9-1.15.12-3.36,2.64-2,4.28-2.06A51.61,51.61,0,0,1,84,7.51Z" transform="translate(-0.02 0)"/><path class="cls-8" d="M74.19,9c-1.11,2.57-.67,5.35-1.09,8C70.69,13.92,69.51,11,74.19,9Z" transform="translate(-0.02 0)"/><path class="cls-9" d="M43.22,9.14,42.15,7.19c2.48.09,5.71-2.79,7,1.8-.3.41-.59.43-.87,0A4.34,4.34,0,0,0,43.22,9.14Z" transform="translate(-0.02 0)"/><path class="cls-10" d="M82.07,16.75c0,.39.08.78.13,1.17-2.85,1.48-5.66,2.59-8-.89C76.87,17.15,79.51,18.22,82.07,16.75Z" transform="translate(-0.02 0)"/><path class="cls-11" d="M48.32,9a2.82,2.82,0,0,0,.87,0l2,0-.08-.08L51.08,10c-1.62,2.42,1.31,5.85-1.78,7.93C48.75,15,49.76,11.84,48.32,9Z" transform="translate(-0.02 0)"/><path class="cls-12" d="M49.3,17.93c2.11-2.3-.46-5.65,1.78-7.93-.38,2.92,1.12,6-.92,8.78,0,.06-.37,0-.45-.09A4.6,4.6,0,0,1,49.3,17.93Z" transform="translate(-0.02 0)"/><path class="cls-13" d="M57.81,10c2.28,2.69,1,5.63,1.07,8.48C57,15.8,58.66,12.82,57.81,10Z" transform="translate(-0.02 0)"/><path class="cls-14" d="M51.21,9c.36-4.09,2.91-1.74,4.35-2.66L56,7.74l-4.9,1.2Z" transform="translate(-0.02 0)"/><path class="cls-15" d="M95.06,17c.65-1.17-.59-2.94,1.46-4,1.27,1.83,1.47,3.37-.47,4.82A1.54,1.54,0,0,1,95.06,17Z" transform="translate(-0.02 0)"/><path class="cls-16" d="M95.06,17l1,.86c-2.21,1.89-4.4,1.69-7.19-.27C91.25,17,93.39,18.56,95.06,17Z" transform="translate(-0.02 0)"/><path class="cls-17" d="M65.1,14A8,8,0,0,1,65,6.08l.24,6.79a.66.66,0,0,1,.21.75C65.3,13.85,65.2,14,65.1,14Z" transform="translate(-0.02 0)"/><path class="cls-18" d="M91.27,8.43c-.26,1.15,1.6,1.8.74,3.1-2.65-1.91-2.65-1.91-.84-4.45A.81.81,0,0,1,91.27,8.43Z" transform="translate(-0.02 0)"/><path class="cls-19" d="M27.24,15.2c0-.81,0-1.63,0-2.44l3.8.62C30.33,15.66,28.37,14.46,27.24,15.2Z" transform="translate(-0.02 0)"/><path class="cls-20" d="M65.1,14l.11-1.09,3.72.5c-.76,2.26-2.58,1.11-3.75,1.64C65.15,14.66,65.13,14.31,65.1,14Z" transform="translate(-0.02 0)"/><path class="cls-21" d="M101.16,16l1.34-.15c.81.86,2.25,1.17,2.51,2.9C102.84,18.76,101.62,17.92,101.16,16Z" transform="translate(-0.02 0)"/><path class="cls-22" d="M91.27,8.43c0-.45-.06-.9-.1-1.35,1.5-.43,3-1.07,4.35,1.06C94.08,9.31,92.46,7.24,91.27,8.43Z" transform="translate(-0.02 0)"/><path class="cls-23" d="M102.2,9.11c0-.84,0-1.68.08-2.52l3.4.57C105.05,9,103,7.94,102.2,9.11Z" transform="translate(-0.02 0)"/><path class="cls-24" d="M10.45,3.84C8.63,4.4,6.65,4.59,5.17,6l7,3.9c0-2.19,2.76-1.61,3.21-3.3Z" transform="translate(-0.02 0)"/><path class="cls-25" d="M5.73,13.74c1.39.39,1.7-1.3.57-2.36S3.19,10,2.94,8h0L.44,9c0,3.7-1,7.45.63,11.05,0-.64.05-1.28.09-1.92C1.22,16.82.74,14.63,3,17h0C3.5,15.58,1.75,12.61,5.73,13.74Z" transform="translate(-0.02 0)"/><path class="cls-26" d="M20,10.56c-.2-2.44-2.63-3.14-4.62-4C13.67,7,11.81,7,11.56,9.35c0,.07,0,.14,0,.21l.58.33c.6.74,1.81,1.21,1.55,2.36-.5,2.17-8,5.42-10.64,4.72a3.77,3.77,0,0,0,0-1.4c-2.72-.55-2.79-.24-2,4.48,1.87,2.28,3.81,1,5.66,0,3-1.66,6.06-3.38,9-5.19C17.52,13.83,20.17,13.16,20,10.56Z" transform="translate(-0.02 0)"/><path class="cls-27" d="M2.94,8A2.31,2.31,0,0,1,5.17,6l.94.52c1.53-.74,3.41-.92,4.34-2.67C7.85,2,5.1-1.18,2,.45S.38,6,.44,9c1.05.88,1.89.36,2.71-.25A2.67,2.67,0,0,1,2.94,8Z" transform="translate(-0.02 0)"/></g></svg>