<svg id="Layer_1" data-name="Layer 1" xmlns="http://www.w3.org/2000/svg" viewBox="0 0 28.41 25.68"><defs><style>.cls-1{fill:#65b801;}.cls-2{fill:#74be19;}.cls-3{fill:#e7f4d9;}.cls-4{fill:#eaf5dc;}.cls-5{fill:#ebf5dd;}.cls-6{fill:#f3f9ed;}</style></defs><title>phimmoi</title><path class="cls-1" d="M24,13.52a12.12,12.12,0,0,1-12,12A12.13,12.13,0,0,1,0,13.88,12,12,0,0,1,11.8,1.63,12,12,0,0,1,24,13.52Z" transform="translate(-0.01 0.11)"/><path class="cls-2" d="M20.64,2.87c1.95-.68,3.86,0,4.76-1.85.46-1,1.14-1.59,2.29-.72,1.4,1.07.45,2.08-.16,2.91C26.16,5.07,24.46,5,20.64,2.87Z" transform="translate(-0.01 0.11)"/><path class="cls-3" d="M13.88,7.27c-.48.86-.52,2.4-2,2.22C10.51,9.34,10.16,8,10.06,6.9,9.93,5.32,11.14,5,12.34,5.12A1.65,1.65,0,0,1,13.88,7.27Z" transform="translate(-0.01 0.11)"/><path class="cls-4" d="M6,13.48c-1.39,0-2.23-.62-2.08-2.1.11-1.1.67-2,1.9-1.72a2.48,2.48,0,0,1,2.29,2.26C8.13,13.19,7,13.4,6,13.48Z" transform="translate(-0.01 0.11)"/><path class="cls-5" d="M15.79,12a2.84,2.84,0,0,1,2.43-2.33c1.24-.17,1.76.72,1.85,1.81.12,1.51-.77,2-2.15,2A2,2,0,0,1,15.79,12Z" transform="translate(-0.01 0.11)"/><path class="cls-6" d="M10,18.71c-.2,1.25-.72,2.24-2.19,2-1-.19-1.91-.79-1.63-2a2.7,2.7,0,0,1,2.51-2C10.17,16.55,10,17.73,10,18.71Z" transform="translate(-0.01 0.11)"/><path class="cls-6" d="M15.43,16.69c1,.35,2.16.78,2.33,2,.19,1.45-1,2-2.16,2-1.46-.09-1.66-1.35-1.68-2.53C13.9,17.29,14.19,16.56,15.43,16.69Z" transform="translate(-0.01 0.11)"/></svg>