<?xml version="1.0" encoding="utf-8"?>
<!-- Generator: Adobe Illustrator 23.0.3, SVG Export Plug-In . SVG Version: 6.00 Build 0)  -->
<svg version="1.1" xmlns="http://www.w3.org/2000/svg" xmlns:xlink="http://www.w3.org/1999/xlink" x="0px" y="0px"
	 viewBox="0 0 1397.4 798.6" style="enable-background:new 0 0 1397.4 798.6;" xml:space="preserve">
<style type="text/css">
	.st0{fill:#FFFFFF;}
	.st1{fill:#FBAD32;}
</style>
<g id="Layer_1">
	<title>furaffinity2</title>
	<path class="st0" d="M978.4,0l-17.2,112.2l145,43.4l-2,126.1l134.3,1.5l-3.1,132.3l125.1-9.8c1.3-83.5,1.2-120.3,8.5-205.1
		C1379.6,79.5,1397.4,0,1397.4,0H978.4z"/>
	<path class="st1" d="M1185.9,458.9l7.2-133.8h-133.3v-146l-147.1-49L933.6,0H363.5C17.3,33,0,363.5,0,363.5v435.1h1011.4
		c0,0,150.1-3.6,245.9-124.6c26.2-33.2,49.1-68.2,63.7-99.7c35-75.8,39.2-112.2,39.3-125.1L1185.9,458.9z"/>
</g>
<g id="Layer_2">
	<path class="st0" d="M283.1,247l-15,138.2c0,0,212-66.4,347.8-10.2c38.5,14,47.1,106.2,40.3,128.3c0,0-317-10.1-395.6,158.3
		c-6.8,14.5-14.9,88.8,14.5,136.9h160.4l-1.2-2.7c0,0-27.8-40-22-68.9c5.4-26.6,17.6-53,46.6-75.6c41.6-32.5,114-54.3,217.9-31.6
		l-20.2,178.8h175c2.1-78.2,9.5-363.4,3.4-407.9C826.4,328.4,788.6,138.8,283.1,247z"/>
</g>
</svg>
