<svg id="Layer_1" data-name="Layer 1" xmlns="http://www.w3.org/2000/svg" viewBox="0 0 492.09 401.26"><defs><style>.cls-1{fill:#1da0f1;}</style></defs><title>twitter</title><path class="cls-1" d="M2.75,358.05c55.08,5.06,104.63-8.7,149.12-42.42A122.74,122.74,0,0,1,136.13,314c-27.5-5.13-49.34-19.15-65.58-41.88a97.51,97.51,0,0,1-12.82-25.22c-.55-1.6-.21-1.7,1.3-1.43a101.62,101.62,0,0,0,41.88-1.5c.44-.1.87-.28,1.69-.56C78.73,238.13,59.16,226.35,44,207.56s-22.36-40.31-22.4-64.71a101.61,101.61,0,0,0,45.54,12.62c-27.72-20.11-43.18-46.79-44.58-81-.79-19.24,3.88-37.2,13.56-54.11C38.45,23,40.57,25.5,42.73,28a287.35,287.35,0,0,0,119.59,81.63A285.48,285.48,0,0,0,221.37,124c7.23,1,14.5,1.59,21.78,2.07,1.57.11,1.78-.21,1.48-1.77-6.13-31.61.38-60.31,20.73-85.36,15.86-19.52,36.43-31.72,61.35-35.66,34.76-5.5,64.69,4.56,89.72,29.23a2.75,2.75,0,0,0,2.9.93A205,205,0,0,0,480,10.27a2.54,2.54,0,0,1,1.76-.58c-8,23.5-22.5,41.65-43.22,55.07a194.56,194.56,0,0,0,56.27-15.19,3.15,3.15,0,0,1-.95,2.12,203.17,203.17,0,0,1-47,48.57,3.86,3.86,0,0,0-1.79,3.73,266.47,266.47,0,0,1-.86,35.29,293.53,293.53,0,0,1-12.54,61.88c-13.45,42.3-34.82,80.08-65,112.71Q311.12,374.1,231.5,394.12a293.2,293.2,0,0,1-45.44,7.59,307.18,307.18,0,0,1-49.28.6,284.94,284.94,0,0,1-107-29A294.61,294.61,0,0,1,3.67,358.68C3.35,358.48,3.05,358.26,2.75,358.05Z" transform="translate(-2.75 -1.77)"/></svg>